<svg width="28" height="24" viewBox="0 0 28 24" fill="none" xmlns="http://www.w3.org/2000/svg">
<path d="M23.3337 0H4.66699C3.60613 0 2.58871 0.421427 1.83857 1.17157C1.08842 1.92172 0.666992 2.93913 0.666992 4V14.6667C0.666992 15.7275 1.08842 16.7449 1.83857 17.4951C2.58871 18.2452 3.60613 18.6667 4.66699 18.6667H12.667V21.3333H7.33366C6.98004 21.3333 6.6409 21.4738 6.39085 21.7239C6.1408 21.9739 6.00033 22.313 6.00033 22.6667C6.00033 23.0203 6.1408 23.3594 6.39085 23.6095C6.6409 23.8595 6.98004 24 7.33366 24H20.667C21.0206 24 21.3598 23.8595 21.6098 23.6095C21.8599 23.3594 22.0003 23.0203 22.0003 22.6667C22.0003 22.313 21.8599 21.9739 21.6098 21.7239C21.3598 21.4738 21.0206 21.3333 20.667 21.3333H15.3337V18.6667H23.3337C24.3945 18.6667 25.4119 18.2452 26.1621 17.4951C26.9122 16.7449 27.3337 15.7275 27.3337 14.6667V4C27.3337 2.93913 26.9122 1.92172 26.1621 1.17157C25.4119 0.421427 24.3945 0 23.3337 0ZM24.667 14.6667C24.667 15.0203 24.5265 15.3594 24.2765 15.6095C24.0264 15.8595 23.6873 16 23.3337 16H4.66699C4.31337 16 3.97423 15.8595 3.72418 15.6095C3.47413 15.3594 3.33366 15.0203 3.33366 14.6667V4C3.33366 3.64638 3.47413 3.30724 3.72418 3.05719C3.97423 2.80714 4.31337 2.66667 4.66699 2.66667H23.3337C23.6873 2.66667 24.0264 2.80714 24.2765 3.05719C24.5265 3.30724 24.667 3.64638 24.667 4V14.6667Z" fill="#10C8A0"/>
</svg>
