<svg width="24" height="24" viewBox="0 0 24 24" fill="none" xmlns="http://www.w3.org/2000/svg">
<path d="M7.03814 15.835C6.83637 16.038 6.72312 16.3126 6.72312 16.5988C6.72312 16.885 6.83637 17.1595 7.03814 17.3625C7.13885 17.4641 7.25867 17.5446 7.39068 17.5996C7.5227 17.6546 7.6643 17.683 7.80731 17.683C7.95032 17.683 8.09192 17.6546 8.22393 17.5996C8.35595 17.5446 8.47577 17.4641 8.57648 17.3625C8.77825 17.1595 8.8915 16.885 8.8915 16.5988C8.8915 16.3126 8.77825 16.038 8.57648 15.835C8.47577 15.7335 8.35595 15.6529 8.22393 15.5979C8.09192 15.5429 7.95032 15.5146 7.80731 15.5146C7.6643 15.5146 7.5227 15.5429 7.39068 15.5979C7.25867 15.6529 7.13885 15.7335 7.03814 15.835ZM7.03814 6.63751C6.83637 6.84049 6.72312 7.11506 6.72312 7.40126C6.72312 7.68746 6.83637 7.96203 7.03814 8.16501C7.13885 8.26655 7.25867 8.34714 7.39068 8.40214C7.5227 8.45714 7.6643 8.48546 7.80731 8.48546C7.95032 8.48546 8.09192 8.45714 8.22393 8.40214C8.35595 8.34714 8.47577 8.26655 8.57648 8.16501C8.77825 7.96203 8.8915 7.68746 8.8915 7.40126C8.8915 7.11506 8.77825 6.84049 8.57648 6.63751C8.47577 6.53597 8.35595 6.45538 8.22393 6.40038C8.09192 6.34538 7.95032 6.31706 7.80731 6.31706C7.6643 6.31706 7.5227 6.34538 7.39068 6.40038C7.25867 6.45538 7.13885 6.53597 7.03814 6.63751ZM12.4006 17.4708C12.1864 17.4708 11.9769 17.5344 11.7988 17.6534C11.6206 17.7725 11.4818 17.9417 11.3998 18.1396C11.3178 18.3376 11.2963 18.5554 11.3381 18.7655C11.3799 18.9757 11.4831 19.1687 11.6346 19.3202C11.7861 19.4717 11.9791 19.5749 12.1893 19.6167C12.3994 19.6585 12.6173 19.637 12.8152 19.555C13.0132 19.4731 13.1824 19.3342 13.3014 19.156C13.4204 18.9779 13.484 18.7684 13.484 18.5542C13.4913 18.4074 13.4687 18.2607 13.4176 18.123C13.3665 17.9852 13.2878 17.8593 13.1865 17.7529C13.0851 17.6465 12.9632 17.5618 12.8281 17.504C12.693 17.4462 12.5476 17.4165 12.4006 17.4167V17.4708ZM5.90064 10.9708C5.68638 10.9708 5.47693 11.0344 5.29877 11.1534C5.12062 11.2725 4.98177 11.4416 4.89977 11.6396C4.81778 11.8376 4.79632 12.0554 4.83812 12.2655C4.87993 12.4757 4.9831 12.6687 5.13461 12.8202C5.28612 12.9717 5.47915 13.0749 5.68929 13.1167C5.89944 13.1585 6.11726 13.137 6.31522 13.055C6.51317 12.9731 6.68236 12.8342 6.8014 12.656C6.92044 12.4779 6.98398 12.2684 6.98398 12.0542C6.99132 11.9074 6.96874 11.7607 6.91759 11.6229C6.86645 11.4852 6.78782 11.3593 6.68648 11.2529C6.58514 11.1465 6.46322 11.0618 6.32812 11.004C6.19302 10.9462 6.04758 10.9165 5.90064 10.9167V10.9708ZM12.4006 4.47084C12.1864 4.47084 11.9769 4.53438 11.7988 4.65342C11.6206 4.77245 11.4818 4.94165 11.3998 5.1396C11.3178 5.33755 11.2963 5.55538 11.3381 5.76552C11.3799 5.97567 11.4831 6.1687 11.6346 6.32021C11.7861 6.47171 11.9791 6.57489 12.1893 6.61669C12.3994 6.65849 12.6173 6.63704 12.8152 6.55504C13.0132 6.47305 13.1824 6.3342 13.3014 6.15604C13.4204 5.97789 13.484 5.76844 13.484 5.55418C13.4913 5.40742 13.4687 5.2607 13.4176 5.12295C13.3665 4.9852 13.2878 4.85929 13.1865 4.75288C13.0851 4.64648 12.9632 4.5618 12.8281 4.504C12.693 4.4462 12.5476 4.41649 12.4006 4.41668V4.47084ZM16.2356 6.69168C16.0835 6.84292 15.9797 7.03594 15.9373 7.24627C15.895 7.45659 15.9161 7.67474 15.9979 7.87307C16.0797 8.0714 16.2186 8.24097 16.3969 8.36029C16.5751 8.47962 16.7849 8.54332 16.9994 8.54332C17.2139 8.54332 17.4236 8.47962 17.6019 8.36029C17.7802 8.24097 17.9191 8.0714 18.0009 7.87307C18.0827 7.67474 18.1038 7.45659 18.0614 7.24627C18.0191 7.03594 17.9153 6.84292 17.7631 6.69168C17.5674 6.48254 17.2968 6.35944 17.0106 6.34929C16.7243 6.33914 16.4457 6.44277 16.2356 6.63751V6.69168ZM23.0606 6.69168C22.0702 4.71166 20.5478 3.04671 18.664 1.88352C16.7803 0.720323 14.6098 0.10488 12.3959 0.106203C10.182 0.107526 8.01219 0.725562 6.12986 1.89101C4.24753 3.05645 2.72707 4.72322 1.739 6.70442C0.750916 8.68561 0.33428 10.9029 0.535807 13.1076C0.737334 15.3123 1.54906 17.4173 2.87995 19.1866C4.21084 20.9558 6.00828 22.3193 8.07071 23.1241C10.1331 23.929 12.379 24.1434 14.5565 23.7433C15.104 23.6403 15.6256 23.4292 16.0906 23.1223C16.5556 22.8153 16.9548 22.4188 17.2648 21.9558C17.5989 21.4525 17.8293 20.8877 17.9428 20.2944C18.0562 19.7011 18.0504 19.0911 17.9256 18.5C17.8574 18.1428 17.8212 17.7803 17.8173 17.4167C17.8221 16.3669 18.1318 15.3411 18.7087 14.4641C19.2857 13.587 20.1051 12.8966 21.0673 12.4767C21.5861 12.2444 22.0518 11.9083 22.4356 11.489C22.8194 11.0698 23.1133 10.5764 23.299 10.0392C23.4868 9.49023 23.5625 8.90916 23.5216 8.33042C23.4806 7.75167 23.3239 7.18704 23.0606 6.67001V6.69168ZM21.219 9.33501C21.1265 9.59427 20.983 9.83236 20.7969 10.0352C20.6109 10.238 20.386 10.4015 20.1356 10.5158C18.8031 11.1123 17.6711 12.0808 16.8755 13.3049C16.0799 14.529 15.6546 15.9567 15.6506 17.4167C15.6522 17.9259 15.703 18.4339 15.8023 18.9333C15.8685 19.2386 15.8728 19.5541 15.8152 19.8611C15.7575 20.1681 15.6389 20.4604 15.4665 20.7208C15.3206 20.9488 15.1285 21.1436 14.9028 21.2929C14.677 21.4422 14.4225 21.5425 14.1556 21.5875C13.577 21.6963 12.9894 21.7507 12.4006 21.75C11.0943 21.7506 9.8012 21.4888 8.59806 20.9799C7.39492 20.4711 6.3063 19.7257 5.39685 18.7879C4.4874 17.8502 3.77566 16.7392 3.30391 15.5211C2.83215 14.3029 2.61 13.0024 2.65064 11.6967C2.73472 9.2622 3.72206 6.94621 5.42032 5.19988C7.11858 3.45356 9.40613 2.40198 11.8373 2.25001H12.3898C14.2052 2.25046 15.9844 2.75775 17.5271 3.71475C19.0698 4.67174 20.3146 6.04043 21.1215 7.66668C21.3698 8.18124 21.4049 8.77307 21.219 9.31334V9.33501ZM12.4006 10.9167C12.1864 10.9167 11.9769 10.9802 11.7988 11.0993C11.6206 11.2183 11.4818 11.3875 11.3998 11.5854C11.3178 11.7834 11.2963 12.0012 11.3381 12.2114C11.3799 12.4215 11.4831 12.6145 11.6346 12.766C11.7861 12.9175 11.9791 13.0207 12.1893 13.0625C12.3994 13.1043 12.6173 13.0829 12.8152 13.0009C13.0132 12.9189 13.1824 12.78 13.3014 12.6019C13.4204 12.4237 13.484 12.2143 13.484 12C13.484 11.7127 13.3698 11.4371 13.1667 11.234C12.9635 11.0308 12.688 10.9167 12.4006 10.9167Z" fill="#11BDF3"/>
</svg>
