<svg width="28" height="24" viewBox="0 0 28 24" fill="none" xmlns="http://www.w3.org/2000/svg">
<path d="M23.3337 4H19.3337V2.66667C19.3337 1.95942 19.0527 1.28115 18.5526 0.781048C18.0525 0.280951 17.3742 0 16.667 0H11.3337C10.6264 0 9.94814 0.280951 9.44804 0.781048C8.94794 1.28115 8.66699 1.95942 8.66699 2.66667V4H4.66699C3.60613 4 2.58871 4.42143 1.83857 5.17157C1.08842 5.92172 0.666992 6.93913 0.666992 8V20C0.666992 21.0609 1.08842 22.0783 1.83857 22.8284C2.58871 23.5786 3.60613 24 4.66699 24H23.3337C24.3945 24 25.4119 23.5786 26.1621 22.8284C26.9122 22.0783 27.3337 21.0609 27.3337 20V8C27.3337 6.93913 26.9122 5.92172 26.1621 5.17157C25.4119 4.42143 24.3945 4 23.3337 4ZM11.3337 2.66667H16.667V4H11.3337V2.66667ZM24.667 20C24.667 20.3536 24.5265 20.6928 24.2765 20.9428C24.0264 21.1929 23.6873 21.3333 23.3337 21.3333H4.66699C4.31337 21.3333 3.97423 21.1929 3.72418 20.9428C3.47413 20.6928 3.33366 20.3536 3.33366 20V12.52L9.57366 14.6667C9.71523 14.6859 9.85875 14.6859 10.0003 14.6667H18.0003C18.1449 14.664 18.2885 14.6416 18.427 14.6L24.667 12.52V20ZM24.667 9.70667L17.787 12H10.2137L3.33366 9.70667V8C3.33366 7.64638 3.47413 7.30724 3.72418 7.05719C3.97423 6.80714 4.31337 6.66667 4.66699 6.66667H23.3337C23.6873 6.66667 24.0264 6.80714 24.2765 7.05719C24.5265 7.30724 24.667 7.64638 24.667 8V9.70667Z" fill="#EB3B3B"/>
</svg>
