<svg width="28" height="24" viewBox="0 0 28 24" fill="none" xmlns="http://www.w3.org/2000/svg">
<path d="M26.2937 12C26.9574 11.2698 27.3278 10.3201 27.3337 9.33333C27.3337 8.27247 26.9122 7.25505 26.1621 6.50491C25.4119 5.75476 24.3945 5.33333 23.3337 5.33333H16.427C16.64 4.7309 16.7056 4.08621 16.6182 3.45324C16.5309 2.82026 16.2932 2.21742 15.925 1.69518C15.5568 1.17294 15.0689 0.746503 14.502 0.451571C13.9352 0.156639 13.306 0.00179402 12.667 0H4.66699C3.60613 0 2.58871 0.421427 1.83857 1.17157C1.08842 1.92172 0.666992 2.93913 0.666992 4C0.672873 4.98674 1.04327 5.93648 1.70699 6.66667C1.05105 7.40003 0.688416 8.34942 0.688416 9.33333C0.688416 10.3172 1.05105 11.2666 1.70699 12C1.05105 12.7334 0.688416 13.6828 0.688416 14.6667C0.688416 15.6506 1.05105 16.6 1.70699 17.3333C1.04327 18.0635 0.672873 19.0133 0.666992 20C0.666992 21.0609 1.08842 22.0783 1.83857 22.8284C2.58871 23.5786 3.60613 24 4.66699 24H23.3337C24.104 23.9959 24.8568 23.7694 25.5015 23.3478C26.1463 22.9262 26.6555 22.3273 26.9681 21.6233C27.2807 20.9192 27.3834 20.1398 27.2637 19.3788C27.1441 18.6178 26.8072 17.9075 26.2937 17.3333C26.9496 16.6 27.3122 15.6506 27.3122 14.6667C27.3122 13.6828 26.9496 12.7334 26.2937 12ZM12.667 21.3333H4.66699C4.31337 21.3333 3.97423 21.1929 3.72418 20.9428C3.47413 20.6928 3.33366 20.3536 3.33366 20C3.33366 19.6464 3.47413 19.3072 3.72418 19.0572C3.97423 18.8071 4.31337 18.6667 4.66699 18.6667H12.667C13.0206 18.6667 13.3598 18.8071 13.6098 19.0572C13.8598 19.3072 14.0003 19.6464 14.0003 20C14.0003 20.3536 13.8598 20.6928 13.6098 20.9428C13.3598 21.1929 13.0206 21.3333 12.667 21.3333ZM12.667 16H4.66699C4.31337 16 3.97423 15.8595 3.72418 15.6095C3.47413 15.3594 3.33366 15.0203 3.33366 14.6667C3.33366 14.313 3.47413 13.9739 3.72418 13.7239C3.97423 13.4738 4.31337 13.3333 4.66699 13.3333H12.667C13.0206 13.3333 13.3598 13.4738 13.6098 13.7239C13.8598 13.9739 14.0003 14.313 14.0003 14.6667C14.0003 15.0203 13.8598 15.3594 13.6098 15.6095C13.3598 15.8595 13.0206 16 12.667 16ZM12.667 10.6667H4.66699C4.31337 10.6667 3.97423 10.5262 3.72418 10.2761C3.47413 10.0261 3.33366 9.68696 3.33366 9.33333C3.33366 8.97971 3.47413 8.64057 3.72418 8.39052C3.97423 8.14048 4.31337 8 4.66699 8H12.667C13.0206 8 13.3598 8.14048 13.6098 8.39052C13.8598 8.64057 14.0003 8.97971 14.0003 9.33333C14.0003 9.68696 13.8598 10.0261 13.6098 10.2761C13.3598 10.5262 13.0206 10.6667 12.667 10.6667ZM12.667 5.33333H4.66699C4.31337 5.33333 3.97423 5.19286 3.72418 4.94281C3.47413 4.69276 3.33366 4.35362 3.33366 4C3.33366 3.64638 3.47413 3.30724 3.72418 3.05719C3.97423 2.80714 4.31337 2.66667 4.66699 2.66667H12.667C13.0206 2.66667 13.3598 2.80714 13.6098 3.05719C13.8598 3.30724 14.0003 3.64638 14.0003 4C14.0003 4.35362 13.8598 4.69276 13.6098 4.94281C13.3598 5.19286 13.0206 5.33333 12.667 5.33333ZM24.2537 20.9467C24.1355 21.0713 23.9926 21.1701 23.8343 21.2366C23.6759 21.3032 23.5054 21.3361 23.3337 21.3333H16.427C16.7467 20.4732 16.7467 19.5268 16.427 18.6667H23.3337C23.6873 18.6667 24.0264 18.8071 24.2765 19.0572C24.5265 19.3072 24.667 19.6464 24.667 20C24.6645 20.1774 24.6267 20.3524 24.5557 20.515C24.4848 20.6775 24.3821 20.8243 24.2537 20.9467ZM24.2537 15.6133C24.1355 15.738 23.9926 15.8367 23.8343 15.9033C23.6759 15.9699 23.5054 16.0028 23.3337 16H16.427C16.7467 15.1399 16.7467 14.1935 16.427 13.3333H23.3337C23.6873 13.3333 24.0264 13.4738 24.2765 13.7239C24.5265 13.9739 24.667 14.313 24.667 14.6667C24.6645 14.844 24.6267 15.0191 24.5557 15.1817C24.4848 15.3442 24.3821 15.491 24.2537 15.6133ZM24.2537 10.28C24.1355 10.4047 23.9926 10.5034 23.8343 10.57C23.6759 10.6365 23.5054 10.6695 23.3337 10.6667H16.427C16.7467 9.80653 16.7467 8.86014 16.427 8H23.3337C23.6873 8 24.0264 8.14048 24.2765 8.39052C24.5265 8.64057 24.667 8.97971 24.667 9.33333C24.6645 9.51069 24.6267 9.68577 24.5557 9.84832C24.4848 10.0109 24.3821 10.1576 24.2537 10.28Z" fill="#FFE600"/>
</svg>
