<svg width="27" height="28" viewBox="0 0 27 28" fill="none" xmlns="http://www.w3.org/2000/svg">
<path d="M7.33333 19.3334C7.86377 19.3334 8.37247 19.1226 8.74755 18.7476C9.12262 18.3725 9.33333 17.8638 9.33333 17.3334C9.33984 17.2668 9.33984 17.1999 9.33333 17.1334L13.0533 13.4134H13.36H13.6667L15.8133 15.56C15.8133 15.56 15.8133 15.6267 15.8133 15.6667C15.8133 16.1971 16.024 16.7058 16.3991 17.0809C16.7742 17.456 17.2829 17.6667 17.8133 17.6667C18.3438 17.6667 18.8525 17.456 19.2275 17.0809C19.6026 16.7058 19.8133 16.1971 19.8133 15.6667V15.56L24.6667 10.6667C25.0622 10.6667 25.4489 10.5494 25.7778 10.3296C26.1067 10.1099 26.363 9.79751 26.5144 9.43205C26.6658 9.0666 26.7054 8.66447 26.6282 8.27651C26.5511 7.88854 26.3606 7.53218 26.0809 7.25247C25.8012 6.97277 25.4448 6.78229 25.0568 6.70512C24.6689 6.62795 24.2668 6.66755 23.9013 6.81893C23.5358 6.9703 23.2235 7.22665 23.0037 7.55555C22.784 7.88445 22.6667 8.27112 22.6667 8.66669C22.6602 8.7332 22.6602 8.80018 22.6667 8.86669L17.8533 13.68H17.64L15.3333 11.3334C15.3333 10.8029 15.1226 10.2942 14.7475 9.91914C14.3725 9.54407 13.8638 9.33335 13.3333 9.33335C12.8029 9.33335 12.2942 9.54407 11.9191 9.91914C11.544 10.2942 11.3333 10.8029 11.3333 11.3334L7.33333 15.3334C6.8029 15.3334 6.29419 15.5441 5.91912 15.9191C5.54405 16.2942 5.33333 16.8029 5.33333 17.3334C5.33333 17.8638 5.54405 18.3725 5.91912 18.7476C6.29419 19.1226 6.8029 19.3334 7.33333 19.3334ZM25.3333 24.6667H2.66667V2.00002C2.66667 1.6464 2.52619 1.30726 2.27614 1.05721C2.02609 0.807163 1.68696 0.666687 1.33333 0.666687C0.979711 0.666687 0.640573 0.807163 0.390524 1.05721C0.140476 1.30726 0 1.6464 0 2.00002V26C0 26.3536 0.140476 26.6928 0.390524 26.9428C0.640573 27.1929 0.979711 27.3334 1.33333 27.3334H25.3333C25.687 27.3334 26.0261 27.1929 26.2761 26.9428C26.5262 26.6928 26.6667 26.3536 26.6667 26C26.6667 25.6464 26.5262 25.3073 26.2761 25.0572C26.0261 24.8072 25.687 24.6667 25.3333 24.6667Z" fill="#D11F7F"/>
</svg>
