<svg width="26" height="28" viewBox="0 0 26 28" fill="none" xmlns="http://www.w3.org/2000/svg">
<path d="M25.5068 5.68001C25.4613 5.50976 25.3825 5.35021 25.2749 5.21061C25.1673 5.071 25.0331 4.95411 24.8801 4.86668L17.9468 0.86668C17.7954 0.77797 17.628 0.720011 17.4542 0.696127C17.2803 0.672242 17.1035 0.682902 16.9338 0.727495C16.7641 0.772087 16.6049 0.849736 16.4653 0.955988C16.3256 1.06224 16.2083 1.19501 16.1201 1.34668L13.0001 6.76001L9.88013 1.34668C9.79191 1.19501 9.67462 1.06224 9.53499 0.955988C9.39536 0.849736 9.23613 0.772087 9.06643 0.727495C8.89673 0.682902 8.7199 0.672242 8.54607 0.696127C8.37225 0.720011 8.20484 0.77797 8.05346 0.86668L1.12012 4.86668C0.967101 4.95411 0.832927 5.071 0.725363 5.21061C0.617798 5.35021 0.538977 5.50976 0.493458 5.68001C0.405214 6.01794 0.453089 6.37701 0.626792 6.68001L5.96012 15.7867C5.36512 16.8767 5.03618 18.092 5.00012 19.3333C4.99695 20.5444 5.26877 21.7404 5.79508 22.8311C6.3214 23.9218 7.08847 24.8787 8.03847 25.6298C8.98846 26.3809 10.0966 26.9065 11.2793 27.167C12.462 27.4275 13.6884 27.4161 14.866 27.1337C16.0437 26.8512 17.1418 26.305 18.0777 25.5364C19.0135 24.7677 19.7627 23.7966 20.2686 22.6963C20.7745 21.596 21.024 20.3952 20.9983 19.1844C20.9726 17.9737 20.6723 16.7845 20.1201 15.7067L25.3201 6.69335C25.4169 6.54527 25.4833 6.37941 25.5153 6.20544C25.5473 6.03147 25.5445 5.85286 25.5068 5.68001ZM3.66679 6.50668L8.28012 3.84001L12.5735 11.3333C10.7434 11.4464 9.00917 12.191 7.66679 13.44L3.66679 6.50668ZM13.0001 24.6667C11.5856 24.6667 10.2291 24.1048 9.22889 23.1046C8.22869 22.1044 7.66679 20.7478 7.66679 19.3333C7.66679 17.9189 8.22869 16.5623 9.22889 15.5621C10.2291 14.5619 11.5856 14 13.0001 14C14.4146 14 15.7712 14.5619 16.7714 15.5621C17.7716 16.5623 18.3335 17.9189 18.3335 19.3333C18.3335 20.7478 17.7716 22.1044 16.7714 23.1046C15.7712 24.1048 14.4146 24.6667 13.0001 24.6667ZM18.3335 13.4C17.6096 12.7388 16.7685 12.2188 15.8535 11.8667L14.5468 9.42668L17.7735 3.84001L22.3868 6.50668L18.3335 13.4Z" fill="#F37E11"/>
</svg>
