<svg width="22" height="28" viewBox="0 0 22 28" fill="none" xmlns="http://www.w3.org/2000/svg">
<path d="M21.173 2.86663C21.0181 2.74133 20.8371 2.65233 20.6433 2.60618C20.4495 2.56003 20.2478 2.55791 20.053 2.59996C18.6283 2.89856 17.1575 2.90236 15.7312 2.61114C14.3049 2.31992 12.9533 1.73985 11.7597 0.906631C11.5365 0.751794 11.2713 0.668823 10.9997 0.668823C10.728 0.668823 10.4629 0.751794 10.2397 0.906631C9.04602 1.73985 7.69445 2.31992 6.26817 2.61114C4.84189 2.90236 3.3711 2.89856 1.94635 2.59996C1.7516 2.55791 1.5499 2.56003 1.35608 2.60618C1.16226 2.65233 0.98125 2.74133 0.826349 2.86663C0.671654 2.99212 0.547043 3.15068 0.461672 3.33065C0.3763 3.51062 0.332338 3.70744 0.333016 3.90663V13.84C0.33183 15.7516 0.78738 17.6359 1.66173 19.3359C2.53608 21.0359 3.80392 22.5024 5.35968 23.6133L10.2263 27.08C10.4522 27.2407 10.7225 27.3271 10.9997 27.3271C11.2769 27.3271 11.5472 27.2407 11.773 27.08L16.6397 23.6133C18.1954 22.5024 19.4633 21.0359 20.3376 19.3359C21.212 17.6359 21.6675 15.7516 21.6663 13.84V3.90663C21.667 3.70744 21.6231 3.51062 21.5377 3.33065C21.4523 3.15068 21.3277 2.99212 21.173 2.86663ZM18.9997 13.84C19.0007 15.3263 18.6467 16.7914 17.9672 18.1133C17.2877 19.4352 16.3023 20.5758 15.093 21.44L10.9997 24.36L6.90635 21.44C5.69706 20.5758 4.71166 19.4352 4.03215 18.1133C3.35263 16.7914 2.99866 15.3263 2.99968 13.84V5.43996C5.79492 5.67921 8.5944 5.03066 10.9997 3.58663C13.405 5.03066 16.2044 5.67921 18.9997 5.43996V13.84Z" fill="#9DA7BB"/>
</svg>
