<svg width="28" height="22" viewBox="0 0 28 22" fill="none" xmlns="http://www.w3.org/2000/svg">
<path d="M26.0003 8.88H22.667C22.4906 8.88073 22.3161 8.91647 22.1536 8.98513C21.9911 9.05379 21.8438 9.15402 21.7203 9.28L20.067 11L16.3337 6.74667C16.209 6.61345 16.0582 6.50726 15.8908 6.43466C15.7234 6.36206 15.5428 6.3246 15.3603 6.3246C15.1779 6.3246 14.9973 6.36206 14.8299 6.43466C14.6625 6.50726 14.5117 6.61345 14.387 6.74667L12.1203 9.01334H10.0003C9.64672 9.01334 9.30758 9.15381 9.05753 9.40386C8.80748 9.65391 8.66701 9.99305 8.66701 10.3467C8.66701 10.7003 8.80748 11.0394 9.05753 11.2895C9.30758 11.5395 9.64672 11.68 10.0003 11.68H12.667C12.8425 11.681 13.0164 11.6474 13.1789 11.581C13.3413 11.5147 13.4891 11.4169 13.6137 11.2933L15.3337 9.50667L19.067 13.76C19.1874 13.8973 19.3348 14.0084 19.4999 14.0863C19.6651 14.1643 19.8445 14.2075 20.027 14.2133C20.2025 14.2143 20.3764 14.1807 20.5389 14.1144C20.7013 14.048 20.8491 13.9502 20.9737 13.8267L23.2403 11.5467H26.0003C26.354 11.5467 26.6931 11.4062 26.9432 11.1561C27.1932 10.9061 27.3337 10.567 27.3337 10.2133C27.3337 9.85971 27.1932 9.52057 26.9432 9.27053C26.6931 9.02048 26.354 8.88 26.0003 8.88ZM16.147 15.9467L13.6137 18.48C13.4897 18.605 13.3423 18.7042 13.1798 18.7719C13.0173 18.8395 12.843 18.8744 12.667 18.8744C12.491 18.8744 12.3167 18.8395 12.1542 18.7719C11.9918 18.7042 11.8443 18.605 11.7203 18.48L4.77367 11.5333C4.3165 11.0764 3.95383 10.5339 3.7064 9.93681C3.45896 9.3397 3.3316 8.69969 3.3316 8.05334C3.3316 7.40699 3.45896 6.76697 3.7064 6.16986C3.95383 5.57274 4.3165 5.03024 4.77367 4.57334C5.69589 3.6541 6.9449 3.13792 8.24701 3.13792C9.54912 3.13792 10.7981 3.6541 11.7203 4.57334C11.8443 4.69831 11.9918 4.7975 12.1542 4.86519C12.3167 4.93288 12.491 4.96773 12.667 4.96773C12.843 4.96773 13.0173 4.93288 13.1798 4.86519C13.3423 4.7975 13.4897 4.69831 13.6137 4.57334C14.5506 3.6823 15.7941 3.1854 17.087 3.1854C18.38 3.1854 19.6235 3.6823 20.5603 4.57334C20.8574 4.87432 21.1171 5.21009 21.3337 5.57334C21.5278 5.84029 21.8141 6.02573 22.1371 6.0938C22.46 6.16186 22.7968 6.1077 23.0822 5.94179C23.3675 5.77589 23.5812 5.51003 23.6818 5.19567C23.7825 4.88131 23.7629 4.54079 23.627 4.24C23.2975 3.69273 22.9035 3.18691 22.4537 2.73334C21.1883 1.45314 19.5084 0.665473 17.715 0.511543C15.9216 0.357613 14.132 0.847482 12.667 1.89334C11.5348 1.07773 10.1993 0.59077 8.80786 0.486203C7.41641 0.381636 6.02312 0.663524 4.78175 1.30076C3.54038 1.938 2.4992 2.9058 1.7731 4.09738C1.04701 5.28895 0.664226 6.65797 0.667007 8.05334C0.666608 9.04546 0.863229 10.0278 1.24546 10.9433C1.6277 11.8588 2.18794 12.6894 2.89367 13.3867L9.84034 20.3333C10.5903 21.0824 11.607 21.5031 12.667 21.5031C13.727 21.5031 14.7437 21.0824 15.4937 20.3333L18.0003 17.8267C18.2487 17.5769 18.3881 17.2389 18.3881 16.8867C18.3881 16.5344 18.2487 16.1965 18.0003 15.9467C17.7517 15.7063 17.4195 15.572 17.0737 15.572C16.7279 15.572 16.3956 15.7063 16.147 15.9467Z" fill="#FF004D"/>
</svg>
