<svg width="98" height="46" viewBox="0 0 98 46" fill="none" xmlns="http://www.w3.org/2000/svg">
<path d="M8.33879 10.262C8.33879 12.1894 6.99718 13.7023 4.37587 13.7023H2.53889V16.5623H0.433594V6.75952H4.39651C6.87334 6.75952 8.33879 8.33459 8.33879 10.262ZM6.21285 10.262C6.21285 9.433 5.61429 8.58329 4.47907 8.58329H2.53889V11.8578H4.68548C5.75877 11.8785 6.21285 11.0702 6.21285 10.262Z" fill="#536DFD"/>
<path d="M9.59766 6.75952H13.6431C15.088 6.75952 16.3057 7.19474 17.2139 8.003C18.2253 8.87343 18.7413 10.1584 18.7413 11.6713C18.7413 13.1842 18.184 14.4898 17.2139 15.3602C16.3264 16.1478 15.0673 16.5623 13.6431 16.5623H9.59766V6.75952ZM13.6431 14.7385C14.9847 14.7385 16.5947 14.2618 16.5947 11.6713C16.5947 9.08068 14.9641 8.60401 13.6431 8.60401H11.7236V14.7385H13.6431Z" fill="#536DFD"/>
<path d="M28.4423 10.262C28.4423 12.1894 27.1007 13.7023 24.4794 13.7023H22.6424V16.5623H20.5371V6.75952H24.5C26.9562 6.75952 28.4423 8.33459 28.4423 10.262ZM26.3164 10.262C26.3164 9.433 25.7178 8.58329 24.5826 8.58329H22.6424V11.8578H24.789C25.8623 11.8785 26.3164 11.0702 26.3164 10.262Z" fill="#536DFD"/>
<path d="M10.2582 40.7478C12.9827 40.7478 14.4688 39.4836 14.4688 38.1986C14.4688 36.3749 12.0332 35.9189 9.37066 35.4423C6.50167 34.9656 0.309603 33.9086 0.309603 28.4166C0.309603 22.966 5.34581 21.4739 9.37066 21.4739C13.3749 21.4739 15.893 22.6966 18.3904 24.5411L15.6453 28.313C13.6845 26.9037 11.3934 25.9504 9.18489 25.9504C7.74008 25.9504 5.24261 26.3856 5.24261 28.2094C5.24261 29.8466 7.71944 30.2197 9.76282 30.6549C13.4781 31.4424 19.3812 31.9191 19.3812 38.0536C19.3812 42.8202 15.6866 45.1828 10.2995 45.1828C5.36645 45.1828 2.1053 43.4213 0 41.5975L2.62131 37.8049C4.29316 39.2142 7.63688 40.7478 10.2582 40.7478Z" fill="#536DFD"/>
<path d="M28.6279 38.6129C28.6279 39.5455 28.6691 41.1828 30.7538 41.1828C31.2904 41.1828 31.662 41.1413 31.9509 41.1206V45.079C31.3936 45.1412 30.5061 45.2034 29.8663 45.2034C26.2336 45.2034 24.0251 44.5402 24.0251 40.9134V31.3386H21.9404V27.2351H24.0251V22.6135H28.6485V27.2351H32.0748V31.3386H28.6485V38.6129H28.6279Z" fill="#536DFD"/>
<path d="M61.9411 37.1419V44.7685H57.2764V27.5049H61.9411V29.8053C63.6955 27.4842 66.6057 27.1733 67.8235 27.194V31.7742C66.6883 31.6913 61.9411 31.8985 61.9411 37.1419Z" fill="#536DFD"/>
<path d="M97.9999 34.572V44.7685H93.2733V34.572C93.2733 31.8986 91.7459 31.0903 89.9296 31.0903C88.6499 31.0903 86.6891 31.8778 86.6478 35.173V44.7685H81.9212V34.572C81.9212 31.8986 80.3525 31.0903 78.6187 31.0903C77.1739 31.0903 75.3163 31.8778 75.3163 35.629L75.275 44.7478H70.6104V27.4842H75.275V29.0593C76.4722 28.0023 78.3917 27.1733 79.7952 27.1733C82.4165 27.1733 84.1297 28.0438 85.3268 29.5359C86.6065 28.0852 88.5467 27.1733 90.8584 27.1733C95.812 27.1941 97.9999 30.0748 97.9999 34.572Z" fill="#536DFD"/>
<path d="M50.6717 29.7427L47.844 33.0587C48.5045 33.8877 48.8967 34.9653 48.8967 36.1674C48.8967 38.9652 46.8326 41.0998 44.1701 41.0998C41.4868 41.0998 39.4435 39.0274 39.4435 36.1674C39.4435 33.4524 41.5075 31.3385 44.1081 31.2971L45.0163 27.2351C44.7273 27.2143 44.459 27.1936 44.1701 27.1936C39.0513 27.1936 34.8613 31.2349 34.8613 36.1674C34.8613 41.162 39.0513 45.1618 44.1701 45.1618C49.2888 45.1618 53.5407 41.1413 53.5407 36.1674C53.5407 33.6597 52.4261 31.38 50.6717 29.7427Z" fill="#536DFD"/>
<path d="M34.4071 21.2251C36.7188 21.2251 36.2441 21.2458 46.7706 21.2458C47.1834 21.2458 47.3691 20.707 47.1215 20.2718C47.1215 20.2718 42.9109 17.6605 41.4867 16.79C41.3216 16.6864 41.4248 16.4584 41.528 16.1683L47.3485 0.914972C47.6581 0.127436 47.1627 -0.34923 46.7087 0.313958C43.4681 5.01845 36.8426 14.4067 33.5402 19.0905C32.6114 20.4168 33.7053 21.2251 34.4071 21.2251Z" fill="#FFD401"/>
<path d="M56.8027 15.0075C54.491 15.0075 54.9657 14.9868 44.4186 14.9868C44.0057 14.9868 43.82 15.5257 44.0677 15.9609C44.0677 15.9609 48.2783 18.5722 49.7024 19.4426C49.8676 19.5462 49.7644 19.7742 49.6612 20.0643L43.8406 35.3177C43.531 36.1052 44.0264 36.5819 44.4805 35.9187C47.721 31.2142 54.3259 21.8259 57.6489 17.1422C58.5984 15.8158 57.5044 15.0075 56.8027 15.0075Z" fill="#FFD401"/>
<path d="M52.7568 17.6812L45.6978 15.5673C45.3882 15.3393 44.6245 15.8367 44.8516 16.2304L49.9497 19.4635C50.0323 19.6086 49.4956 20.9142 49.3924 21.1836L44.0879 34.8204C43.8196 35.5251 44.2117 35.9396 44.5626 35.3178L52.9838 19.1733C53.5618 18.1164 53.2728 18.0335 52.7568 17.6812Z" fill="#FDB917"/>
<path d="M39.031 18.3442L45.2849 20.7068C45.5945 20.9347 46.3582 20.4374 46.1312 20.0436L41.0124 16.7898C40.9299 16.6448 41.4665 15.3391 41.5697 15.0697L46.8949 1.43288C47.1632 0.728245 46.771 0.313752 46.4202 0.935491L38.8039 16.852C38.226 17.909 38.515 17.9919 39.031 18.3442Z" fill="#FDB917"/>
</svg>
